HIERARCHY
ROOT Hips
{
	OFFSET 0.00000 0.00000 0.00000
	CHANNELS 6 Xposition Yposition Zposition Yrotation Zrotation Xrotation 
	JOINT Lumbar
	{
		OFFSET 0 0 0
		CHANNELS 3 Zrotation Xrotation Yrotation
		JOINT Neck
		{
			OFFSET 0.00 0.2701 0.00
			CHANNELS 3 Zrotation Xrotation Yrotation
			End Site
			{
				OFFSET 0.00 0.1379 0.00
			}
		}
		JOINT RightShoulder
		{
			OFFSET 0.0119 0.2289 0.1181
			CHANNELS 3 Zrotation Xrotation Yrotation
			JOINT RightElbow
			{
				OFFSET 0.00 -0.1475 0.00
				CHANNELS 2 Zrotation Yrotation
				JOINT RightWrist
				{
					OFFSET 0.00 -0.1605 0.00
					CHANNELS 2 Zrotation Xrotation
					End Site
					{
						OFFSET 0.0040 -0.1068 0.0006
					}
				}
			}
		}
		JOINT LeftShoulder
		{
			OFFSET 0.0119 0.2289 -0.1181
			CHANNELS 3 Zrotation Xrotation Yrotation
			JOINT LeftElbow
			{
				OFFSET 0.00 -0.1475 0.00
				CHANNELS 2 Zrotation Yrotation
				JOINT LeftWrist
				{
					OFFSET 0.00 -0.1605 0.00
					CHANNELS 2 Zrotation Xrotation
					End Site
					{
						OFFSET 0.0040 -0.1068 -0.0006
					}
				}
			}
		}
	}
	JOINT RightHip
	{
		OFFSET 0.0316 -0.0424 0.0458
		CHANNELS 3 Zrotation Xrotation Yrotation
		JOINT RightKnee
		{
			OFFSET 0.00 -0.2438 0.00
			CHANNELS 1 Zrotation
			JOINT RightAnkle
			{
				OFFSET 0.00 -0.2449 0.00
				CHANNELS 3 Zrotation Xrotation Yrotation
				End Site
				{
					OFFSET 0.1237 -0.0542 0.0051
				}
			}
		}
	}
	JOINT LeftHip
	{
		OFFSET 0.0316 -0.0424 -0.0458
		CHANNELS 3 Zrotation Xrotation Yrotation
		JOINT LeftKnee
		{
			OFFSET 0.00 -0.2438 0.00
			CHANNELS 1 Zrotation
			JOINT LeftAnkle
			{
				OFFSET 0.00 -0.2449 0.00
				CHANNELS 3 Zrotation Xrotation Yrotation
				End Site
				{
					OFFSET 0.1237 -0.0542 -0.0051
				}
			}
		}
	}
}
MOTION
Frames: 22
Frame Time: 0.02
0.33163 0.35592 0.00294 181.02984 0 -4.93888 -3.09743 5.05146 -8.87398 -53.65856 14.58047 22.90175 108.67723 -69.59679 57.13347 123.30813 119.27518 16.62811 3.69247 69.38255 -10.94021 -60.30348 66.4713 -108.41699 -59.53043 6.0616 68.82169 -5.93706 -14.26458 -80.29578 -3.32551 -3.04703 -17.87214 69.58641 15.01606 8.98085 -88.20722 11.99556 8.53633 18.20032
0.3317 0.35574 0.00305 181.05294 0 -5.17067 -3.04655 5.04961 -8.74686 -54.1864 14.61511 23.18193 108.61066 -70.60892 56.52859 123.25905 105.5076 20.30387 2.23501 69.55513 -10.78246 -59.88785 67.25381 -107.8976 -55.92489 6.0899 68.73351 -5.9791 -14.61222 -80.23559 -3.32184 -3.08037 -17.79858 69.74666 15.08969 8.75467 -88.33076 12.0398 8.57706 18.19687
0.33162 0.35549 0.00319 181.07083 0 -5.44511 -2.94787 5.08987 -8.57955 -54.89843 14.67457 23.61623 108.64429 -71.93583 56.08718 122.86634 90.22773 21.87844 -1.01461 69.74308 -10.47961 -59.05331 68.4762 -107.56229 -50.95056 6.15622 68.63283 -6.02663 -15.01953 -80.19829 -3.29689 -3.12702 -17.70375 69.93564 15.18259 8.48171 -88.50909 12.09443 8.61892 18.19897
0.33159 0.35528 0.00334 181.08087 0 -5.69961 -2.87402 5.11297 -8.44024 -55.51059 14.72288 23.96521 108.62194 -73.06628 55.58251 122.64111 76.03522 24.3339 -3.34816 69.92297 -10.25162 -58.43318 69.45269 -107.15695 -46.78486 6.20275 68.53916 -6.06452 -15.39531 -80.14851 -3.28391 -3.16774 -17.61639 70.10948 15.27337 8.23345 -88.66429 12.14594 8.65977 18.19977
0.3316 0.35506 0.00342 181.13365 0 -5.95818 -2.78815 5.12988 -8.25834 -56.18686 14.76949 24.37331 108.62343 -74.42517 55.01917 122.36871 60.04729 27.1544 -6.07727 70.11362 -9.98556 -57.71301 70.61609 -106.69406 -41.86063 6.25975 68.43904 -6.13326 -15.79285 -80.10725 -3.26073 -3.20865 -17.53724 70.29323 15.3368 7.96875 -88.81348 12.19083 8.7024 18.19574
0.33151 0.35485 0.00364 181.09661 0 -6.21773 -2.7155 5.16902 -8.15579 -56.77371 14.82563 24.69711 108.61162 -75.38279 54.62203 122.11167 47.50696 28.70124 -8.41369 70.28213 -9.76423 -57.10077 71.49888 -106.39463 -38.17488 6.30412 68.34957 -6.13923 -16.15818 -80.05376 -3.25382 -3.25206 -17.43611 70.46271 15.46082 7.7276 -88.98747 12.25159 8.74122 18.20307
0.33121 0.3547 0.00423 180.80948 0 -6.46994 -2.69146 5.25704 -8.28743 -57.08343 14.90636 24.74809 108.47673 -75.14523 54.63699 121.99443 44.51875 27.17444 -9.3213 70.39753 -9.70519 -56.89408 71.48123 -106.50349 -38.30908 6.30324 68.29415 -5.96497 -16.41832 -79.96108 -3.29825 -3.29908 -17.28257 70.58609 15.75605 7.56661 -89.21848 12.35731 8.77531 18.23891
0.33082 0.35459 0.00497 180.43306 0 -6.72146 -2.68213 5.36601 -8.49972 -57.29462 14.99523 24.70995 108.3366 -74.49539 54.81603 121.90243 45.11431 24.44578 -9.76345 70.48689 -9.69565 -56.80936 71.17006 -106.77023 -39.72187 6.28856 68.24966 -5.72827 -16.6439 -79.85533 -3.35962 -3.34804 -17.10739 70.69396 16.10994 7.43043 -89.47196 12.47777 8.80444 18.28615
0.33048 0.35446 0.00565 180.09935 0 -6.97267 -2.66568 5.46652 -8.67183 -57.54225 15.07772 24.71503 108.24415 -74.03899 54.92667 121.78984 44.3168 22.30185 -10.35888 70.5801 -9.6614 -56.6654 71.00594 -106.96336 -40.50266 6.28091 68.19936 -5.52356 -16.88581 -79.75547 -3.41253 -3.39607 -16.94013 70.80845 16.43145 7.28097 -89.71374 12.58941 8.83211 18.32915
0.33012 0.35432 0.0063 179.75528 0 -7.22762 -2.64952 5.56417 -8.85702 -57.83229 15.17233 24.71447 107.97212 -73.56353 55.01866 121.70245 42.51966 19.91197 -11.2488 70.70888 -9.63145 -56.52304 70.79977 -107.1705 -41.44936 6.27137 68.15246 -5.30362 -17.12692 -79.65655 -3.46799 -3.44488 -16.77968 70.92548 16.77809 7.13886 -89.96392 12.71127 8.87584 18.3686
0.32976 0.35421 0.00704 179.41313 0 -7.47457 -2.63676 5.67206 -9.03515 -58.00711 15.24336 24.70184 108.06105 -73.03136 55.18398 121.57468 43.61394 17.78993 -11.40818 70.75562 -9.60618 -56.41162 70.60534 -107.38388 -42.37414 6.26199 68.1009 -5.10073 -17.36111 -79.55236 -3.52234 -3.49221 -16.60084 71.03353 17.08565 6.98722 -90.201 12.81409 8.8845 18.4178
0.32944 0.35419 0.00802 179.08521 0 -7.69466 -2.6307 5.80405 -9.16912 -57.89615 15.24651 24.68211 109.23872 -72.39276 55.53242 121.31782 52.36856 16.58611 -9.51227 70.59513 -9.58241 -56.35914 70.51643 -107.57284 -42.91278 6.25647 68.03699 -4.95773 -17.58005 -79.43613 -3.5705 -3.53601 -16.37121 71.11711 17.2746 6.81021 -90.39791 12.87053 8.80141 18.49325
0.32912 0.3542 0.00907 178.76457 0 -7.90725 -2.62756 5.94518 -9.29381 -57.66997 15.22554 24.65126 110.76227 -71.71864 55.94454 121.02396 63.82095 15.72199 -6.91498 70.35045 -9.5622 -56.3351 70.44672 -107.76263 -43.39489 6.25144 67.96769 -4.83427 -17.79338 -79.31514 -3.61699 -3.57794 -16.12503 71.19267 17.42155 6.62194 -90.58029 12.90559 8.68265 18.57768
0.3288 0.35419 0.01007 178.44929 0 -8.12651 -2.62283 6.08135 -9.4268 -57.49046 15.21617 24.62247 112.06775 -71.09312 56.3128 120.75542 73.67464 14.79262 -4.7317 70.13577 -9.5407 -56.29795 70.36556 -107.95266 -43.91755 6.24594 67.89853 -4.70369 -18.01245 -79.19659 -3.66355 -3.62003 -15.88984 71.27407 17.58504 6.43415 -90.76806 12.94371 8.57744 18.65661
0.32847 0.35418 0.01115 178.09494 0 -8.33268 -2.62 6.22187 -9.54741 -57.33249 15.20497 24.60526 113.63087 -70.31863 56.74899 120.44893 85.19717 13.45711 -2.13817 69.95518 -9.51964 -56.2655 70.28719 -108.14426 -44.4194 6.24087 67.83859 -4.56431 -18.21845 -79.07616 -3.71314 -3.6653 -15.63871 71.34578 17.76074 6.26575 -90.96182 13.00973 8.48255 18.742
0.32817 0.35419 0.01208 177.82406 0 -8.56347 -2.61332 6.355 -9.68798 -57.1025 15.19104 24.55999 114.73862 -69.8485 57.05776 120.2158 93.87381 13.04731 -0.22955 69.68377 -9.49765 -56.22855 70.20978 -108.33254 -44.93694 6.23537 67.75915 -4.44773 -18.44884 -78.95901 -3.75639 -3.70324 -15.41781 71.43582 17.90101 6.05528 -91.1393 13.01331 8.35869 18.81582
0.32791 0.35427 0.01258 177.78934 0 -8.87164 -2.59874 6.46726 -9.90825 -56.71084 15.18139 24.46165 114.51259 -70.25221 56.98871 120.16428 93.7067 15.26289 -0.45958 69.18333 -9.47424 -56.17179 70.14466 -108.49432 -45.48746 6.22699 67.61763 -4.39803 -18.76472 -78.84918 -3.77759 -3.72337 -15.27912 71.57964 17.94709 5.72007 -91.2756 12.84134 8.15551 18.85627
0.32768 0.35438 0.01292 177.83753 0 -9.20345 -2.57953 6.57135 -10.14477 -56.24934 15.16874 24.33233 113.8153 -70.96011 56.79048 120.19228 90.62438 18.37532 -1.39097 68.5942 -9.44921 -56.1091 70.0788 -108.65475 -46.05338 6.2185 67.45836 -4.36928 -19.10235 -78.74331 -3.79337 -3.73579 -15.17262 71.74203 17.95993 5.34499 -91.39574 12.60867 7.92589 18.88455
0.32744 0.35446 0.01333 177.84319 0 -9.51945 -2.56007 6.67792 -10.35832 -55.81453 15.15342 24.2028 113.32772 -71.51557 56.65713 120.20485 89.07322 20.98467 -1.95388 68.0452 -9.42328 -56.04871 70.00507 -108.82672 -46.62252 6.21122 67.31352 -4.32557 -19.41924 -78.63778 -3.81474 -3.75048 -15.05487 71.89516 17.99202 4.99538 -91.52321 12.40931 7.71373 18.91786
0.32716 0.35458 0.01376 177.86908 0 -9.85648 -2.55045 6.79002 -10.63574 -55.39744 15.15401 24.13114 112.86899 -72.13262 56.49934 120.1332 86.75112 24.01183 -2.70255 67.49446 -9.40415 -55.99072 69.96569 -108.95427 -47.14969 6.19916 67.14184 -4.30552 -19.78187 -78.52355 -3.82263 -3.77043 -14.92189 72.05143 18.00511 4.61401 -91.65082 12.18541 7.47751 18.95365
0.32698 0.35464 0.01411 177.87301 0 -10.15551 -2.51948 6.88853 -10.78619 -54.92776 15.12145 23.93429 112.23633 -72.69021 56.36182 120.2507 85.30221 26.37298 -3.23942 66.92677 -9.37074 -55.92636 69.85536 -109.17202 -47.76556 6.19687 67.02166 -4.24084 -20.05433 -78.42778 -3.8576 -3.77748 -14.82896 72.2057 18.05052 4.28992 -91.77375 11.99804 7.2854 18.98118
0.32702 0.35447 0.01429 177.7914 0 -10.34314 -2.42841 6.95136 -10.56416 -54.33507 14.99493 23.3777 111.21456 -73.0444 56.30338 120.92013 86.99237 26.71563 -3.03103 66.33942 -9.29597 -55.84272 69.54007 -109.65582 -48.64976 6.22266 67.05009 -4.04869 -20.07378 -78.38773 -3.96639 -3.75205 -14.83484 72.3496 18.1925 4.13007 -91.89386 11.93027 7.22359 18.98933
